<svg width="12" height="14"><path d="M1.562 12.336c-1.435-1.531-1.408-4 .034-5.525l5.15-5.448a2.685 2.685 0 0 1 3.945 0c1.078 1.14 1.08 2.98 0 4.12l-4.49 4.745a1.79 1.79 0 0 1-2.65-.025c-.695-.761-.673-1.968.035-2.716l3.53-3.728c.151-.16.4-.163.555-.006l.561.568a.416.416 0 0 1 .006.574L4.71 8.623c-.121.128-.128.341-.016.465.108.117.276.12.385.004l4.49-4.744a1.363 1.363 0 0 0 0-1.849 1.15 1.15 0 0 0-1.698 0L2.72 7.947c-.854.903-.867 2.364-.03 3.258a2.047 2.047 0 0 0 3.022.007l4.224-4.469c.152-.16.4-.163.556-.006l.562.568a.416.416 0 0 1 .006.574l-4.225 4.469c-1.463 1.547-3.829 1.529-5.273-.012"/></svg>