<svg width="14" height="17"><path d="M10 11.219c-.437.25-1.094 0-1.594.125C7.937 11.469 7.5 12 7 12c-.531 0-.969-.531-1.437-.656-.5-.125-1.157.125-1.594-.125-.438-.25-.531-.938-.875-1.313-.375-.344-1.063-.469-1.313-.875-.25-.437 0-1.094-.125-1.594C1.531 6.97 1 6.532 1 6c0-.5.531-.937.656-1.406.125-.5-.125-1.157.125-1.594.25-.437.938-.531 1.313-.875.344-.375.469-1.062.875-1.312.437-.25 1.094 0 1.594-.125C6.03.563 6.469 0 7 0c.5 0 .938.563 1.375.688.5.125 1.156-.125 1.594.125.437.25.531.937.906 1.312.344.344 1.031.438 1.281.875.25.438 0 1.094.125 1.594.125.468.688.906.688 1.406 0 .531-.531.969-.656 1.438-.126.5.124 1.156-.126 1.593-.25.438-.937.531-1.312.875-.344.375-.469 1.063-.875 1.313M4.5 6c0 1.406 1.094 2.5 2.5 2.5 1.375 0 2.5-1.094 2.5-2.5 0-1.375-1.125-2.5-2.5-2.5A2.487 2.487 0 0 0 4.5 6m-3.469 7.563L2.063 11a7.13 7.13 0 0 0 4.312 2l-1.062 2.563a.69.69 0 0 1-.657.437h-.031a.729.729 0 0 1-.656-.406L3.28 14.28l-1.406.281a.728.728 0 0 1-.719-.25.735.735 0 0 1-.125-.75M11.906 11l1.031 2.563a.735.735 0 0 1-.124.75.728.728 0 0 1-.72.25l-1.405-.282L10 15.594c-.125.281-.375.406-.656.406-.031 0-.031 0-.031.031a.859.859 0 0 1-.688-.468L7.594 13a7.13 7.13 0 0 0 4.312-2"/></svg>