<svg width="46" height="36"><path d="M42.313 2.453c1.64.625 2.812 2.188 2.812 3.906v23.672c0 1.172-.547 2.188-1.562 2.89-.938.626-2.11.86-3.204.548-9.062-2.813-15.937 1.172-16.718 1.718-.313.157-.625.313-1.094.313-.469 0-.781-.156-1.094-.312-.39-.235-7.422-4.61-16.719-1.72-1.093.313-2.265.079-3.203-.546-.937-.703-1.406-1.719-1.406-2.89V6.358c0-1.718 1.094-3.28 2.734-3.906C6.375 1.203 9.813.5 12.938.5a24.121 24.121 0 0 1 9.687 2.188c1.64-.782 4.922-2.11 9.61-2.11 3.046 0 6.484.625 10.078 1.875M21.375 32.297V4.875A21.627 21.627 0 0 0 12.938 3c-2.891 0-6.016.625-9.297 1.797-.625.234-1.016.86-1.016 1.562v23.672c0 .313.156.625.39.86.313.234.626.234 1.016.156 2.578-.781 4.922-1.094 7.11-1.094 4.609 0 8.28 1.406 10.234 2.344m21.25-2.266V6.36a1.7 1.7 0 0 0-1.094-1.562C38.171 3.625 34.97 3 32.234 3c-4.062.078-7.03 1.25-8.359 1.875v27.422c2.89-1.406 9.375-3.672 17.266-1.25.39.078.703.078 1.015-.156.235-.235.469-.547.469-.86"/></svg>