<svg width="36" height="40"><path d="M35.375 28.75c0 1.64-1.094 3.047-2.5 3.594V37.5h1.25c.625 0 1.25.625 1.25 1.25 0 .703-.625 1.25-1.25 1.25H5.375c-2.812 0-5-2.187-5-5V6.25A6.218 6.218 0 0 1 6.625 0h25c2.031 0 3.75 1.719 3.75 3.75zm-32.5-22.5v24.453c.703-.39 1.563-.703 2.5-.703h2.5V2.5h-1.25a3.75 3.75 0 0 0-3.75 3.75m27.5 31.25v-5h-25c-1.406 0-2.5 1.172-2.5 2.5 0 1.406 1.094 2.5 2.5 2.5zm1.25-7.5c.625 0 1.25-.547 1.25-1.25v-25c0-.625-.625-1.25-1.25-1.25h-21.25V30zm-3.75-20c.625 0 1.25.625 1.25 1.25 0 .703-.625 1.25-1.25 1.25h-12.5c-.703 0-1.25-.547-1.25-1.25 0-.625.547-1.25 1.25-1.25zm0 7.5c.625 0 1.25.625 1.25 1.25 0 .703-.625 1.25-1.25 1.25h-12.5c-.703 0-1.25-.547-1.25-1.25 0-.625.547-1.25 1.25-1.25z"/></svg>