<svg width="14" height="15"><path d="M5.208 1.625V2.5h3.5v-.875c0-.465.383-.875.875-.875a.9.9 0 0 1 .875.875V2.5h1.313c.71 0 1.312.602 1.312 1.313v1.312H.833V3.813c0-.711.574-1.313 1.313-1.313h1.312v-.875c0-.465.383-.875.875-.875a.9.9 0 0 1 .875.875M.833 6h12.25v7.438c0 .738-.602 1.312-1.312 1.312H2.146a1.296 1.296 0 0 1-1.313-1.312zm1.75 3.063c0 .246.191.437.438.437h.875a.45.45 0 0 0 .437-.437v-.876a.47.47 0 0 0-.437-.437H3.02a.45.45 0 0 0-.438.438zm3.5 0c0 .246.191.437.438.437h.875a.45.45 0 0 0 .437-.437v-.876a.47.47 0 0 0-.437-.437H6.52a.45.45 0 0 0-.438.438zm3.938-1.313a.45.45 0 0 0-.438.438v.874c0 .247.191.438.438.438h.874a.45.45 0 0 0 .438-.437v-.876a.47.47 0 0 0-.437-.437zm-7.438 4.813c0 .246.191.437.438.437h.875a.45.45 0 0 0 .437-.437v-.876a.47.47 0 0 0-.437-.437H3.02a.45.45 0 0 0-.438.438zm3.938-1.313a.45.45 0 0 0-.438.438v.874c0 .247.191.438.438.438h.875a.45.45 0 0 0 .437-.437v-.876a.47.47 0 0 0-.437-.437zm3.062 1.313c0 .246.191.437.438.437h.874a.45.45 0 0 0 .438-.437v-.876a.47.47 0 0 0-.437-.437h-.876a.45.45 0 0 0-.437.438z"/></svg>