<svg width="49" height="53"><path d="M1 35.5c-.078-16.64 19.922-16.64 20 .078 0 16.563-20 16.64-20-.078m9.766 10c1.328-2.89 1.093-6.016-.86-8.828C7.562 33.39 7.25 29.406 8.812 25.5c-2.5.39-5.39 4.61-5.312 10 0 2.578.703 5.469 2.188 7.422 1.171 1.562 3.046 2.578 5 2.578zm2.734-.234c3.594-1.407 5-6.172 5-9.688-.078-.234-.078-9.922-6.953-10.156-1.719 3.515-1.64 7.031.39 9.922 2.188 3.047 2.657 6.64 1.563 9.922m22.813-32.578c11.874 11.875-1.25 25.078-13.126 13.203C11.313 14.016 24.36.813 36.313 12.688M24.75 24.172c.156.234 7.11 7.11 11.719 2.656-1.25-3.672-3.907-6.094-7.266-6.797-3.594-.781-6.484-3.047-8.125-6.093-1.328 3.437 1.172 7.656 3.672 10.234m13.516.86c1.406-1.954.234-6.798-3.594-10.626-1.875-1.875-4.375-3.437-6.797-3.906-1.797-.234-3.828.234-5.156 1.484 1.172 3.047 3.593 5.079 6.875 5.782 3.828.78 6.953 3.437 8.672 7.265"/></svg>