<svg width="36" height="41"><path d="M25.031 28C30.813 28 35.5 32.688 35.5 38.469c0 1.172-.937 2.031-2.11 2.031H2.532C1.36 40.5.5 39.64.5 38.469.5 32.687 5.11 28 10.89 28zM4.406 36.75h27.11c-.782-2.812-3.36-5-6.485-5h-14.14c-3.125 0-5.703 2.188-6.485 5M18 9.25a6.218 6.218 0 0 0-6.25 6.25c0 1.563.547 2.89 1.406 3.984-.86.938-1.406 2.188-1.406 3.516v.313A9.934 9.934 0 0 1 8 15.5c0-5.469 4.453-10 10-10 5.469 0 10 4.531 10 10a9.08 9.08 0 0 1-.625 3.281c-.625 1.016-1.797 1.719-3.125 1.719h-.703c-.235-.312-.469-.703-.781-1.016.859-1.093 1.484-2.422 1.484-3.984 0-3.437-2.812-6.25-6.25-6.25M4.25 18C3.547 18 3 17.453 3 16.75V15.5C3 7.297 9.719.5 18 .5c8.203 0 15 6.797 15 15v1.25c-.078 4.844-3.984 8.75-8.75 8.75h-7.5a2.468 2.468 0 0 1-2.5-2.5c0-1.328 1.094-2.5 2.5-2.5h2.5c1.328 0 2.5 1.172 2.5 2.5h2.5a6.218 6.218 0 0 0 6.25-6.25V15.5C30.5 8.625 24.875 3 18 3 11.047 3 5.5 8.625 5.5 15.5v1.25c0 .703-.625 1.25-1.25 1.25"/></svg>