<svg width="17" height="17"><path d="M5.5 8.5c0 .563-.469 1-1 1-.562 0-1-.437-1-1 0-.531.438-1 1-1 .531 0 1 .469 1 1m-1-3c0-.531.438-1 1-1 .531 0 1 .469 1 1 0 .563-.469 1-1 1-.562 0-1-.437-1-1m5-1c0 .563-.469 1-1 1-.562 0-1-.437-1-1 0-.531.438-1 1-1 .531 0 1 .469 1 1m1 1c0-.531.438-1 1-1 .531 0 1 .469 1 1 0 .563-.469 1-1 1-.562 0-1-.437-1-1m3.781 5H11.25a1.5 1.5 0 0 0-1.5 1.5c0 .125 0 .219.031.313.063.343.188.624.313.937.187.438.406.875.406 1.313 0 1-.687 1.906-1.687 1.937H8.5c-4.437 0-8-3.562-8-8 0-4.406 3.563-8 8-8 4.406 0 8 3.594 8 8 0 .031-.031.063-.031.094 0 1.156-1.032 1.906-2.188 1.906m.688-1.906c0-.031.031-.063.031-.094C15 4.938 12.063 2 8.5 2 4.906 2 2 4.938 2 8.5 2 12.094 4.906 15 8.5 15h.313l.062-.062c.063-.063.125-.188.125-.376 0-.03-.031-.156-.187-.53-.032-.032-.032-.063-.063-.126-.125-.312-.344-.781-.437-1.281-.063-.187-.063-.406-.063-.625 0-1.656 1.313-3 3-3h3.031c.25 0 .438-.062.563-.156.125-.094.125-.188.125-.25"/></svg>