<svg width="52" height="35"><path d="M30.61 5.781 37.015 2.5c1.562-.781 3.359-1.25 5.078-1.25h4.765c2.813 0 4.688 2.969 3.516 5.469-1.406 3.125-3.906 5.703-6.953 7.265L22.016 24.61c-.47.313-1.094.391-1.641.391H9.515a3.72 3.72 0 0 1-2.656-1.094l-5-4.922C.688 17.812.922 15.86 2.406 15l1.797-1.016c1.094-.625 2.344-.703 3.438-.234l3.906 1.797 6.484-3.36L9.125 6.72c-1.64-1.094-1.484-3.594.313-4.375l2.89-1.328A5.948 5.948 0 0 1 17.094.86zM10.452 4.61l12.656 7.813-11.484 5.86-5-2.188a1.523 1.523 0 0 0-1.172 0l-1.797 1.093 4.922 5c.235.235.625.313.938.313h10.859c.156 0 .39 0 .547-.078L42.327 11.72c2.5-1.25 4.61-3.438 5.781-6.016.391-.86-.234-1.953-1.25-1.953h-4.765c-1.328 0-2.735.39-3.985 1.016l-7.343 3.75-14.532-5.313c-.937-.39-1.953-.312-2.89.078zM49.75 32.5c.625 0 1.25.625 1.25 1.25 0 .703-.625 1.25-1.25 1.25H2.25C1.547 35 1 34.453 1 33.75c0-.625.547-1.25 1.25-1.25zM9.984 3.438l.47 1.171zm-2.89 11.484.547-1.172z"/></svg>