<svg width="15" height="17"><path d="M10.5 3c2.188 0 4 1.813 4 4v7.5c0 1.125-.906 2-2 2h-10c-1.125 0-2-.875-2-2V7c0-2.187 1.781-4 4-4h.25v-.75C4.75 1.313 5.531.5 6.5.5h2c.938 0 1.75.813 1.75 1.75V3zm-4.25-.75V3h2.5v-.75A.269.269 0 0 0 8.5 2h-2a.246.246 0 0 0-.25.25M10.5 15v-2h-6v2zm0-3.5v-1c0-.531-.469-1-1-1h-4c-.562 0-1 .469-1 1v1zm2.5 3V7c0-1.375-1.125-2.5-2.5-2.5h-6A2.487 2.487 0 0 0 2 7v7.5c0 .281.219.5.5.5H3v-4.5C3 9.125 4.094 8 5.5 8h4c1.375 0 2.5 1.125 2.5 2.5V15h.5c.25 0 .5-.219.5-.5m-3-9c.25 0 .5.25.5.5v.5c0 .281-.25.5-.5.5H5a.494.494 0 0 1-.5-.5V6c0-.25.219-.5.469-.5z"/></svg>