<svg width="46" height="41"><path d="M21.458 8.75c0-1.016.782-1.875 1.875-1.875 1.016 0 1.875.86 1.875 1.875 0 1.094-.86 1.875-1.875 1.875-1.093 0-1.875-.781-1.875-1.875m.703 15.625c-2.5-3.125-8.203-10.703-8.203-15A9.352 9.352 0 0 1 23.333 0c5.157 0 9.375 4.219 9.375 9.375 0 4.297-5.781 11.875-8.281 15a1.388 1.388 0 0 1-2.266 0m7.266-12.266c.547-1.25.781-2.109.781-2.734 0-3.75-3.125-6.875-6.875-6.875-3.828 0-6.875 3.125-6.875 6.875 0 .625.157 1.484.703 2.734.47 1.25 1.25 2.579 2.032 3.907 1.328 2.187 2.89 4.297 4.14 5.859 1.172-1.562 2.735-3.672 4.063-5.86.781-1.328 1.562-2.656 2.031-3.906m3.047 5.313c0 .078-.078.078-.156.078.625-1.094 1.25-2.266 1.718-3.36l9.22-3.671c1.171-.469 2.577.39 2.577 1.719v21.171c0 .782-.468 1.485-1.25 1.72l-12.11 4.843c-.233.156-.468.156-.78.078l-17.11-4.922-11.25 4.531c-1.172.47-2.5-.39-2.5-1.718V16.719c0-.782.39-1.485 1.172-1.719l9.61-3.906c.156.86.39 1.64.703 2.422l-8.985 3.593v19.844l10-3.984V23.75c0-.625.547-1.25 1.25-1.25.625 0 1.25.625 1.25 1.25v9.063l15 4.296V23.75c0-.625.547-1.25 1.25-1.25.625 0 1.25.625 1.25 1.25v13.203l10-3.984V13.125z"/></svg>