<svg width="51" height="40"><path d="m25.589 15.156-2.5-4.14V3.75c0-2.031 1.718-3.75 3.828-3.75h10c2.031 0 3.75 1.719 3.75 3.75V15h2.5V8.75c0-.625.547-1.25 1.25-1.25.625 0 1.25.625 1.25 1.25V15h1.25c2.031 0 3.75 1.719 3.75 3.75v20c0 .703-.625 1.25-1.25 1.25-.703 0-1.25-.547-1.25-1.25v-20c0-.625-.625-1.25-1.25-1.25h-8.75V3.75c0-.625-.625-1.25-1.25-1.25h-10c-.703 0-1.328.625-1.328 1.25zm9.609 20.703c.547.86.547 1.953.078 2.813-.469.86-1.328 1.328-2.344 1.328H3.323c-1.016 0-1.875-.469-2.344-1.328-.469-.86-.469-1.953.078-2.813l14.766-24.53A2.725 2.725 0 0 1 18.167 10c.937 0 1.797.547 2.265 1.328zM18.323 12.656c-.078-.078-.156-.156-.234-.156l-.157.156-6.171 10.235 2.578 3.75 2.734-3.594c.234-.313.547-.547.938-.547h6.25zM3.167 37.422c0 .078.078.078.156.078h29.61c.078 0 .156 0 .156-.078.078-.078.078-.156 0-.234L25.745 25h-7.11l-3.359 4.531c-.234.313-.625.547-1.015.469-.391 0-.782-.156-1.016-.469l-2.89-4.297-7.188 11.953c-.078.079-.078.157 0 .235m25-29.922c0-1.328 1.093-2.5 2.5-2.5h2.5c1.328 0 2.5 1.172 2.5 2.5V10c0 1.406-1.172 2.5-2.5 2.5h-2.5a2.468 2.468 0 0 1-2.5-2.5zm5 0h-2.5V10h2.5zm0 7.5c1.328 0 2.5 1.172 2.5 2.5V20c0 .703-.625 1.25-1.25 1.25-.703 0-1.25-.547-1.25-1.25v-2.5h-2.5c-.703 0-1.25-.547-1.25-1.25 0-.625.547-1.25 1.25-1.25zm5 7.5c0-1.328 1.093-2.5 2.5-2.5h2.5c1.328 0 2.5 1.172 2.5 2.5V25c0 1.406-1.172 2.5-2.5 2.5h-2.5a2.468 2.468 0 0 1-2.5-2.5zm5 0h-2.5V25h2.5zm0 7.5c1.328 0 2.5 1.172 2.5 2.5V35c0 1.406-1.172 2.5-2.5 2.5h-2.5a2.468 2.468 0 0 1-2.5-2.5v-2.5c0-1.328 1.093-2.5 2.5-2.5zm-2.5 5h2.5v-2.5h-2.5z"/></svg>