<svg width="18" height="15"><path d="M9.469 12.781 12.656 9.5h2.094l-4.562 4.719a1.101 1.101 0 0 1-.72.281 1.1 1.1 0 0 1-.718-.281L4.219 9.5h2.093zm6.5-11.312c1.937 1.687 2.031 4.687.281 6.5l-.531.562h-3.563l-.687-1.406-1.563 3.125c-.187.375-.75.344-.906-.031L7.219 6.28l-.938 2.25H3.25l-.531-.562C.969 6.156 1.063 3.156 3 1.469 3.75.812 4.719.5 5.656.5 6.813.5 8 1 8.875 1.875l.625.656.594-.656C10.969 1 12.156.5 13.313.5c.937 0 1.906.313 2.656.969m-.813 5.469c1.031-1.063 1.25-3.094-.187-4.313-1.25-1.094-2.969-.531-3.781.313L9.5 4.688l-1.719-1.75C6.97 2.062 5.25 1.53 4 2.625c-1.437 1.219-1.187 3.25-.187 4.313l.562.593h1.25L6.75 4.813c.156-.407.719-.407.906 0l1.813 4.03L11 5.782c.188-.343.719-.343.906 0l.844 1.75h1.844z"/></svg>