<svg width="16" height="16"><path d="M8 0c4.406 0 8 3.594 8 8 0 4.438-3.594 8-8 8a8.227 8.227 0 0 1-4.594-1.406c-.437-.344-.562-.969-.25-1.406.313-.47.938-.563 1.406-.25C5.533 13.625 6.72 14 8 14A6 6 0 0 0 8 2c-1.687 0-3.156.688-4.25 1.781l.969.938c.468.5.125 1.281-.532 1.281H.75A.722.722 0 0 1 0 5.25V1.813c0-.657.781-1 1.25-.532l1.063 1.063C3.78.906 5.78 0 7.969 0zm0 4a.76.76 0 0 1 .75.75v2.969l2 2c.313.312.313.781 0 1.062a.684.684 0 0 1-1.031 0l-2.25-2.25C7.312 8.406 7.25 8.22 7.25 8V4.75A.74.74 0 0 1 8 4"/></svg>