<svg width="19" height="17"><path d="M7 7.25C7 6.563 7.531 6 8.25 6h2.5c.688 0 1.25.563 1.25 1.25v2.5c0 .719-.562 1.25-1.25 1.25h-2.5C7.531 11 7 10.469 7 9.75zm3.5 2.25v-2h-2v2zM9 .688a.797.797 0 0 1 .969 0L15 4.938V2.25a.74.74 0 0 1 .75-.75.76.76 0 0 1 .75.75v3.969l1.719 1.468a.78.78 0 0 1 .093 1.063.779.779 0 0 1-1.062.094l-.75-.656V14c0 1.406-1.125 2.5-2.5 2.5H5A2.468 2.468 0 0 1 2.5 14V8.188l-.781.656A.779.779 0 0 1 .656 8.75.779.779 0 0 1 .75 7.688zM4 6.906V14c0 .563.438 1 1 1h9c.531 0 1-.437 1-1V6.906L9.5 2.25z"/></svg>