<svg width="36" height="36"><path d="M.167 4.25A3.75 3.75 0 0 1 3.917.5h3.75c2.031 0 3.75 1.719 3.75 3.75V18c0 3.516 2.734 6.25 6.25 6.25a6.218 6.218 0 0 0 6.25-6.25V4.25A3.75 3.75 0 0 1 27.667.5h3.75c2.031 0 3.75 1.719 3.75 3.75V18c0 9.688-7.89 17.5-17.5 17.5A17.47 17.47 0 0 1 .167 18zM3.917 3c-.703 0-1.25.625-1.25 1.25V8h6.25V4.25c0-.625-.625-1.25-1.25-1.25zm13.75 30c8.281 0 15-6.719 15-15v-7.5h-6.25V18c0 4.844-3.984 8.75-8.75 8.75A8.736 8.736 0 0 1 8.917 18v-7.5h-6.25V18c0 8.281 6.64 15 15 15m15-25V4.25c0-.625-.625-1.25-1.25-1.25h-3.75c-.703 0-1.25.625-1.25 1.25V8z"/></svg>