<svg width="40" height="40"><path d="m23.438 2.578-.235.235C22.188 2.656 21.093 2.5 20 2.5 10.313 2.5 2.5 10.39 2.5 20c0 9.688 7.813 17.5 17.5 17.5 9.61 0 17.5-7.812 17.5-17.5 0-1.094-.156-2.187-.312-3.203l.234-.235 1.797-2.03C39.687 16.25 40 18.124 40 20c0 11.094-8.984 20-20 20C8.906 40 0 31.094 0 20 0 8.984 8.906 0 20 0c1.875 0 3.672.313 5.469.781zm-1.954 5.703.313 1.953c-.547-.156-1.172-.234-1.875-.234-5.469 0-10 4.531-10 10 0 5.547 4.531 10 10 10C25.469 30 30 25.547 30 20a6.67 6.67 0 0 0-.234-1.797l1.953.313c.234 0 .468.078.625.078.078.468.156.937.156 1.406 0 6.953-5.625 12.5-12.5 12.5-6.953 0-12.5-5.547-12.5-12.5 0-6.875 5.547-12.5 12.5-12.5.469 0 .938.078 1.406.156 0 .157.078.39.078.625m5.157 6.875-5.782 5.781c-.468.47-1.328.47-1.797 0-.468-.468-.468-1.328 0-1.796l5.782-5.782-.86-5.468a3.724 3.724 0 0 1 1.172-3.438l3.828-3.437c1.094-.938 2.657-.47 3.047.859l1.407 4.688 4.687 1.406c1.328.39 1.797 1.953.86 2.968l-3.438 3.907a3.724 3.724 0 0 1-3.438 1.172zm2.187-2.187 3.75.625c.39.078.86-.078 1.094-.39l2.812-3.126-3.672-1.094zm2.188-5.781-1.094-3.672-3.125 2.812c-.313.234-.469.703-.39 1.094l.624 3.75z"/></svg>