<svg width="41" height="35"><path d="M27.417 17.5c0 4.148-2.883 7.875-6.75 7.875-3.937 0-6.75-3.727-6.75-7.875s2.813-7.875 6.75-7.875c3.867 0 6.75 3.727 6.75 7.875m-6.75 5.625c2.25 0 4.5-2.32 4.5-5.625s-2.25-5.625-4.5-5.625c-2.32 0-4.5 2.32-4.5 5.625s2.18 5.625 4.5 5.625M.417 29.242V7.445c0-1.687 1.758-2.812 3.375-2.32 5.625 1.477 11.25.07 16.875-1.336 6.117-1.547 12.234-3.164 18.352-.844 1.125.422 1.898 1.618 1.898 2.883v21.797c0 1.688-1.828 2.813-3.445 2.32-5.625-1.476-11.25-.07-16.805 1.336-6.188 1.547-12.305 3.164-18.422.844C1.12 31.703.417 30.508.417 29.242m6.75-21.304c-1.336-.07-2.672-.282-3.938-.704-.14 0-.351 0-.492.141-.07 0-.07.07-.14.07h.07v4.993c2.46 0 4.5-1.97 4.5-4.5m-4.5 18v3.304c0 .492.21.703.422.774 1.336.492 2.672.773 4.078.914v-.492c0-2.461-2.04-4.5-4.5-4.5m0-2.25a6.752 6.752 0 0 1 6.75 6.75V31c3.094-.07 6.398-.773 9.914-1.687.281-.07.563-.141.914-.211 3.656-.985 7.594-1.97 11.672-2.04a6.752 6.752 0 0 1 6.75-6.75v-9c-3.797 0-6.75-3.023-6.75-6.75V4.07c-3.164.07-6.469.774-9.984 1.688a18.5 18.5 0 0 1-.914.21c-3.657.985-7.594 1.97-11.672 2.04 0 3.726-3.024 6.68-6.68 6.68zm35.86 4.007c.07 0 .07-.07.14-.07v-5.062a4.486 4.486 0 0 0-4.5 4.5v.07c1.266.07 2.602.281 3.867.633.14.07.352.07.492-.07m.14-18.632V5.828c0-.492-.281-.703-.492-.773a16.494 16.494 0 0 0-4.008-.914v.422c0 2.53 1.969 4.5 4.5 4.5"/></svg>