<svg width="16" height="14"><path d="M15 0c.531 0 1 .469 1 1v11c0 1.125-.906 2-2 2H2c-1.125 0-2-.875-2-2V3c0-.531.438-1 1-1h1v9.5c0 .281.219.5.5.5.25 0 .5-.219.5-.5V1c0-.531.438-1 1-1zM8.5 12c.25 0 .5-.219.5-.5 0-.25-.25-.5-.5-.5h-3c-.281 0-.5.25-.5.5 0 .281.219.5.5.5zm0-3c.25 0 .5-.219.5-.5 0-.25-.25-.5-.5-.5h-3c-.281 0-.5.25-.5.5 0 .281.219.5.5.5zm5 3c.25 0 .5-.219.5-.5 0-.25-.25-.5-.5-.5h-3c-.281 0-.5.25-.5.5 0 .281.219.5.5.5zm0-3c.25 0 .5-.219.5-.5 0-.25-.25-.5-.5-.5h-3c-.281 0-.5.25-.5.5 0 .281.219.5.5.5zm.5-3.5v-3c0-.25-.25-.5-.5-.5h-8c-.281 0-.5.25-.5.5v3c0 .281.219.5.5.5h8c.25 0 .5-.219.5-.5"/></svg>