<svg width="20" height="14"><path d="M5.75 1.75c0 .969-.812 1.75-1.75 1.75-.969 0-1.75-.781-1.75-1.75C2.25.813 3.031 0 4 0c.938 0 1.75.813 1.75 1.75m.75 3.406A4.427 4.427 0 0 0 5 8.5c0 1.094.344 2.063 1 2.844V12c0 .563-.469 1-1 1H3c-.562 0-1-.437-1-1v-.812A3.517 3.517 0 0 1 0 8c0-1.906 1.563-3.5 3.5-3.5h1c.719 0 1.438.25 2 .656M2 6.688C1.688 7.03 1.5 7.5 1.5 8c0 .531.188 1 .5 1.344zM14 12v-.656c.625-.781 1-1.75 1-2.844a4.45 4.45 0 0 0-1.531-3.344A3.501 3.501 0 0 1 15.5 4.5h1C18.406 4.5 20 6.094 20 8a3.572 3.572 0 0 1-2 3.188V12c0 .563-.469 1-1 1h-2c-.562 0-1-.437-1-1m4-2.656c.281-.344.5-.813.5-1.344 0-.5-.219-.969-.5-1.312zm-.25-7.594c0 .969-.812 1.75-1.75 1.75-.969 0-1.75-.781-1.75-1.75C14.25.813 15.031 0 16 0c.938 0 1.75.813 1.75 1.75M8 2c0-1.094.875-2 2-2 1.094 0 2 .906 2 2 0 1.125-.906 2-2 2-1.125 0-2-.875-2-2m6 6.5a3.572 3.572 0 0 1-2 3.188V13c0 .563-.469 1-1 1H9c-.562 0-1-.437-1-1v-1.312A3.517 3.517 0 0 1 6 8.5C6 6.594 7.563 5 9.5 5h1C12.406 5 14 6.594 14 8.5M8 9.844V7.188C7.688 7.53 7.5 8 7.5 8.5c0 .531.188 1 .5 1.344m4-2.656v2.656c.281-.375.5-.813.5-1.344 0-.5-.219-.969-.5-1.312"/></svg>