<svg width="31" height="40"><path d="M30.334 35c0 2.813-2.266 5-5 5h-20c-2.813 0-5-2.187-5-5h2.5c0 1.406 1.093 2.5 2.5 2.5h20c1.328 0 2.5-1.094 2.5-2.5zm-11.25-20c-2.11 0-3.75-1.64-3.75-3.75V2.5h-10c-1.407 0-2.5 1.172-2.5 2.5v12.5h-2.5V5c0-2.734 2.187-5 5-5H17.52c.938 0 1.953.469 2.656 1.172l8.985 8.984c.703.703 1.172 1.719 1.172 2.656V17.5h-2.5V15zm8.359-3.047L18.38 2.891c-.156-.157-.39-.235-.546-.313v8.672c0 .703.546 1.25 1.25 1.25h8.671c-.078-.156-.156-.39-.312-.547M7.209 20c2.343 0 4.375 2.031 4.375 4.375 0 2.422-2.032 4.375-4.375 4.375h-.625v2.5c0 .703-.625 1.25-1.25 1.25-.704 0-1.25-.547-1.25-1.25v-10c0-.625.546-1.25 1.25-1.25zm1.875 4.375c0-1.016-.86-1.875-1.875-1.875h-.625v3.75h.625c1.015 0 1.875-.781 1.875-1.875m3.75-3.125c0-.625.546-1.25 1.25-1.25h1.875c2.03 0 3.75 1.719 3.75 3.75v5a3.75 3.75 0 0 1-3.75 3.75h-1.875c-.704 0-1.25-.547-1.25-1.25zm2.5 8.75h.625c.625 0 1.25-.547 1.25-1.25v-5c0-.625-.625-1.25-1.25-1.25h-.625zm11.25-10c.625 0 1.25.625 1.25 1.25 0 .703-.625 1.25-1.25 1.25h-2.5V25h2.5c.625 0 1.25.625 1.25 1.25 0 .703-.625 1.25-1.25 1.25h-2.5v3.75c0 .703-.625 1.25-1.25 1.25-.704 0-1.25-.547-1.25-1.25v-10c0-.625.546-1.25 1.25-1.25z"/></svg>