<svg width="22" height="28"><path d="M10.448 14.006c-.274-.876-.268-2.565-.11-2.565.46 0 .416 2.018.11 2.564m-.093 2.58c-.421 1.105-.946 2.369-1.553 3.43 1-.383 2.132-.941 3.44-1.198-.695-.525-1.362-1.28-1.887-2.231m-5.146 6.826c0 .044.721-.296 1.908-2.199-.366.345-1.591 1.34-1.908 2.199M14.063 8.75H21.5v17.938A1.31 1.31 0 0 1 20.188 28H1.813A1.31 1.31 0 0 1 .5 26.688V1.313A1.31 1.31 0 0 1 1.813 0H12.75v7.438c0 .721.59 1.312 1.313 1.312m-.438 9.395c-1.094-.667-1.821-1.586-2.335-2.942.246-1.012.634-2.548.339-3.51-.257-1.609-2.319-1.45-2.614-.373-.274 1.001-.022 2.412.443 4.211-.635 1.51-1.57 3.533-2.231 4.692-.006 0-.006.006-.011.006-1.482.76-4.025 2.434-2.98 3.719.305.377.874.546 1.175.546.979 0 1.952-.984 3.341-3.38 1.411-.464 2.959-1.044 4.32-1.268 1.187.645 2.576 1.067 3.5 1.067 1.598 0 1.707-1.75 1.078-2.374-.76-.744-2.97-.53-4.025-.394m7.492-12.403-5.36-5.36A1.312 1.312 0 0 0 14.829 0H14.5v7h7v-.334a1.31 1.31 0 0 0-.383-.924m-4.052 13.962c.224-.148-.137-.65-2.34-.492 2.028.864 2.34.492 2.34.492"/></svg>