<svg width="33" height="37"><path d="M7.5 9.5c0-4.922 4.008-9 9-9 4.922 0 9 4.078 9 9v1.125c0 4.992-4.078 9-9 9-4.992 0-9-4.008-9-9zm15.61-1.125H21c-1.055 0-2.04-.352-2.812-1.125l-.422-.422C16.43 8.516 14.32 9.5 12.14 9.5H9.75v1.125c0 3.727 2.953 6.75 6.75 6.75a6.752 6.752 0 0 0 6.75-6.75V9.5c0-.352-.07-.703-.14-1.125m-4.712-4.148 1.407 1.406c.351.351.773.492 1.195.492h1.336C21.14 4.156 18.96 2.75 16.5 2.75c-2.953 0-5.484 1.898-6.398 4.5h2.039a4.984 4.984 0 0 0 4.43-2.672c.07-.14.14-.21.21-.351.422-.422 1.196-.422 1.617 0m.352 17.648c.563 0 1.125.563 1.125 1.125 0 .633-.562 1.125-1.125 1.125h-.703l1.406 4.219 2.602-5.274c5.695.633 10.195 5.414 10.195 11.32 0 1.196-.984 2.11-2.18 2.11H2.86c-1.196 0-2.11-.914-2.11-2.11 0-5.906 4.43-10.687 10.125-11.32l2.602 5.274 1.406-4.219h-.703c-.563 0-1.125-.492-1.125-1.125 0-.562.562-1.125 1.125-1.125zM16.5 34.25l1.477-3.023-1.477-4.641-1.547 4.64zm13.43 0c0-4.078-2.813-7.594-6.61-8.648l-4.36 8.648zm-15.961 0-4.36-8.648C5.813 26.656 3 30.172 3 34.25z"/></svg>