<svg width="21" height="21"><path d="M5.54 1.04a1.79 1.79 0 0 1 2.03 1.015l1.72 3.984c.273.703.077 1.563-.509 2.031L7.18 9.398a12.747 12.747 0 0 0 4.883 4.883l1.289-1.601a1.806 1.806 0 0 1 2.07-.47l3.984 1.68a1.79 1.79 0 0 1 1.016 2.032l-.86 3.672A1.724 1.724 0 0 1 17.845 21C8.274 21 .5 13.188.5 3.617c0-.86.547-1.562 1.367-1.758zm.272 1.21-3.671.86a.508.508 0 0 0-.43.507c0 8.867 7.266 16.133 16.133 16.133a.508.508 0 0 0 .508-.43l.859-3.672v-.117a.508.508 0 0 0-.313-.469l-3.945-1.718c-.234-.078-.469-.04-.625.156l-1.601 1.953c-.196.235-.508.313-.782.156a13.431 13.431 0 0 1-6.093-6.132c-.157-.235-.079-.547.156-.743L7.96 7.133c.195-.156.234-.39.156-.625l-1.68-3.945c-.117-.235-.351-.391-.625-.313"/></svg>