<svg width="31" height="41"><path d="M21.75 15a6.218 6.218 0 0 1-6.25 6.25c-3.516 0-6.25-2.734-6.25-6.25a6.218 6.218 0 0 1 6.25-6.25c3.438 0 6.25 2.813 6.25 6.25m-6.25 3.75A3.75 3.75 0 0 0 19.25 15c0-2.031-1.719-3.75-3.75-3.75A3.75 3.75 0 0 0 11.75 15c0 2.11 1.64 3.75 3.75 3.75m15-3.75c0 6.875-9.14 18.984-13.203 24.063a2.357 2.357 0 0 1-3.672 0C9.563 33.984.5 21.875.5 15c0-8.281 6.64-15 15-15 8.281 0 15 6.719 15 15m-15-12.5C8.547 2.5 3 8.125 3 15c0 1.25.39 2.89 1.25 5 .86 2.031 2.031 4.219 3.438 6.406 2.656 4.297 5.78 8.438 7.812 10.938 1.953-2.5 5.078-6.64 7.734-10.938 1.407-2.187 2.578-4.375 3.438-6.406.86-2.11 1.328-3.75 1.328-5 0-6.875-5.625-12.5-12.5-12.5"/></svg>