<svg width="26" height="35"><path d="M17.266.5c4.609 0 8.359 3.75 8.359 8.36 0 3.046-1.64 5.859-4.297 7.265l-7.578 4.297c-.39.234-.625.625-.625 1.094v2.734c0 .703-.625 1.328-1.25 1.328-.703 0-1.25-.625-1.25-1.328v-2.734c0-1.328.703-2.578 1.875-3.282l7.578-4.218c1.875-1.094 3.047-3.047 3.047-5.157 0-3.203-2.656-5.859-5.86-5.859H8.907C5.703 3 3.125 5.656 3.125 8.86v1.64c0 .703-.625 1.25-1.25 1.25-.703 0-1.25-.547-1.25-1.25V8.86C.625 4.25 4.297.5 8.906.5zm-5.391 28.75c1.328 0 2.5 1.172 2.5 2.5 0 1.406-1.172 2.5-2.5 2.5a2.468 2.468 0 0 1-2.5-2.5c0-1.328 1.094-2.5 2.5-2.5"/></svg>