<svg width="19" height="17"><path d="m5.809.727 3.093 3.41c.422.457.387 1.16-.07 1.582-.457.422-1.195.351-1.582-.07L6.125 4.382V15c0 .633-.527 1.125-1.125 1.125A1.11 1.11 0 0 1 3.875 15V4.383l-1.16 1.265a1.115 1.115 0 0 1-1.582.07 1.084 1.084 0 0 1-.035-1.581L4.156.727C4.578.27 5.386.27 5.81.727m10.44 13.148c.598 0 1.125.527 1.125 1.125 0 .633-.527 1.125-1.195 1.125h-4.465c-.422 0-.844-.246-1.02-.668a1.137 1.137 0 0 1 .246-1.23l2.567-2.602H11.75a1.11 1.11 0 0 1-1.125-1.125c0-.598.492-1.125 1.09-1.125h4.535c.422 0 .844.281 1.02.703.175.422.07.914-.247 1.23l-2.566 2.567zm1.547-7.242c.281.562.07 1.23-.492 1.512a1.15 1.15 0 0 1-1.512-.493l-.246-.527h-3.129l-.246.527c-.281.528-.95.774-1.512.493a1.114 1.114 0 0 1-.492-1.512l2.813-5.625c.386-.774 1.617-.774 2.003 0zm-4.395-1.477h1.16L14 3.996z"/></svg>