<svg width="42" height="37"><path d="M30.888 15.055c-.351-.211-.633-.492-.914-.844-.281.351-.562.633-.914.844a6.151 6.151 0 0 1-3.656 1.195c-1.406 0-2.672-.422-3.656-1.195a3.698 3.698 0 0 1-.985-.844c-.281.351-.562.633-.914.844-.984.773-2.25 1.195-3.656 1.195a6.15 6.15 0 0 1-3.656-1.195c-.352-.211-.633-.492-.914-.844-.282.351-.563.633-.914.844a6.15 6.15 0 0 1-3.657 1.195H6.21c-3.94-.562-5.768-5.133-3.658-8.437L6.56 1.484A1.893 1.893 0 0 1 8.248.5h25.101c.703 0 1.336.352 1.688.984l4.007 6.329c2.11 3.304.282 7.875-3.656 8.437h-.844c-1.406 0-2.671-.422-3.656-1.195m2.32-12.305H8.389L4.451 9.008c-1.336 2.11 0 4.71 2.039 4.992h.562c1.125 0 2.18-.492 2.883-1.266a2.246 2.246 0 0 1 1.688-.773c.632 0 1.265.281 1.687.773A3.928 3.928 0 0 0 16.193 14c1.195 0 2.18-.492 2.953-1.266.422-.492.984-.773 1.617-.773s1.266.281 1.688.773c.703.774 1.758 1.266 2.953 1.266 1.125 0 2.18-.492 2.883-1.266a2.246 2.246 0 0 1 1.687-.773c.633 0 1.195.281 1.617.773.774.774 1.758 1.266 2.953 1.266h.563c2.039-.281 3.375-2.883 2.039-4.992zM7.335 19.625v5.625h27v-5.625c0-.562.492-1.125 1.124-1.125.563 0 1.126.563 1.126 1.125V32c0 2.531-2.04 4.5-4.5 4.5h-22.5c-2.532 0-4.5-1.969-4.5-4.5V19.625c0-.562.492-1.125 1.125-1.125.562 0 1.125.563 1.125 1.125m0 12.375a2.22 2.22 0 0 0 2.25 2.25h22.5c1.195 0 2.25-.984 2.25-2.25v-4.5h-27z"/></svg>