<svg width="17" height="17"><path d="M10.5 5.5c.531 0 1 .469 1 1v4c0 .563-.469 1-1 1h-4c-.562 0-1-.437-1-1v-4c0-.531.438-1 1-1zM10 10V7H7v3zm5.75-.75H14.5v1.5h1.25a.76.76 0 0 1 .75.75.74.74 0 0 1-.75.75H14.5v.25c0 1.125-.906 2-2 2h-.25v1.25a.74.74 0 0 1-.75.75.722.722 0 0 1-.75-.75V14.5h-1.5v1.25a.74.74 0 0 1-.75.75.722.722 0 0 1-.75-.75V14.5h-1.5v1.25a.74.74 0 0 1-.75.75.722.722 0 0 1-.75-.75V14.5H4.5c-1.125 0-2-.875-2-2v-.25H1.25a.722.722 0 0 1-.75-.75.74.74 0 0 1 .75-.75H2.5v-1.5H1.25A.722.722 0 0 1 .5 8.5a.74.74 0 0 1 .75-.75H2.5v-1.5H1.25A.722.722 0 0 1 .5 5.5a.74.74 0 0 1 .75-.75H2.5V4.5c0-1.094.875-2 2-2h.25V1.25A.74.74 0 0 1 5.5.5a.76.76 0 0 1 .75.75V2.5h1.5V1.25A.74.74 0 0 1 8.5.5a.76.76 0 0 1 .75.75V2.5h1.5V1.25A.74.74 0 0 1 11.5.5a.76.76 0 0 1 .75.75V2.5h.25c1.094 0 2 .906 2 2v.25h1.25a.76.76 0 0 1 .75.75.74.74 0 0 1-.75.75H14.5v1.5h1.25a.76.76 0 0 1 .75.75.74.74 0 0 1-.75.75M13 12.5v-8c0-.25-.25-.5-.5-.5h-8c-.281 0-.5.25-.5.5v8c0 .281.219.5.5.5h8c.25 0 .5-.219.5-.5"/></svg>