<svg width="17" height="17"><path d="M4 11c0-.531.438-1 1-1 .531 0 1 .469 1 1 0 .563-.469 1-1 1-.562 0-1-.437-1-1m7 0c0-.531.438-1 1-1 .531 0 1 .469 1 1 0 .563-.469 1-1 1-.562 0-1-.437-1-1M1.813 2.719C2.593 1.719 4.719.5 8.5.5c4 0 5.938 1.219 6.688 2.219.218.312.312.656.312.937V4.5c.531 0 1 .469 1 1v2c0 .563-.469 1-1 1v3.75a2.28 2.28 0 0 1-1 1.875v1.625a.74.74 0 0 1-.75.75.722.722 0 0 1-.75-.75V14.5H4v1.25a.74.74 0 0 1-.75.75.722.722 0 0 1-.75-.75v-1.625a2.204 2.204 0 0 1-1-1.875V8.5c-.562 0-1-.437-1-1v-2c0-.531.438-1 1-1v-.844c0-.281.063-.656.313-.937m9.03.781h3.063C13.406 2.969 11.97 2 8.5 2c-3.219 0-4.844.969-5.406 1.5h3.031c.156-.281.5-.5.875-.5h3c.344 0 .688.219.844.5M14 5H9.25v2.5H14zM3 7.5h4.75V5H3zM3 9v3.25c0 .438.313.75.75.75h9.5a.74.74 0 0 0 .75-.75V9z"/></svg>