<svg width="51" height="41"><path d="M34.125 21.938a1.309 1.309 0 0 1 1.64.78c.235.704-.156 1.407-.78 1.563l-3.594 1.25c-.157 1.25-.703 2.422-1.641 3.282l3.516 10.546c.234.703-.078 1.407-.782 1.641h-.39c-.469 0-1.016-.312-1.172-.781l-3.36-10.078a6.09 6.09 0 0 1-1.718.234 6.506 6.506 0 0 1-1.719-.234l-3.36 10.078c-.156.468-.624.781-1.171.781h-.39a1.309 1.309 0 0 1-.782-1.64l3.515-10.547c-.156-.157-.234-.313-.39-.47l-10.313 3.048c-.234.078-.546.156-.78.156-.938 0-1.876-.547-2.267-1.485-.312-.859-2.421-6.093-2.812-7.109-.469-1.172.078-2.578 1.25-3.125L28.422 8.656a1.194 1.194 0 0 1 1.64.547c.235.625.079 1.328-.546 1.64L7.64 22.094c.39.938 2.5 6.173 2.812 7.032l9.922-3.047c-.156-.469-.234-.86-.234-1.328 0-3.047 2.578-5.625 5.625-5.625 2.5 0 4.53 1.64 5.312 3.828zm-8.281 5.937a3.134 3.134 0 0 0 3.125-3.125 3.134 3.134 0 0 0-3.125-3.125 3.134 3.134 0 0 0-3.125 3.125 3.134 3.134 0 0 0 3.125 3.125m-22.5-1.64 1.406 3.437c.313.625 0 1.328-.625 1.64-.156 0-.312.079-.469.079-.547 0-1.015-.313-1.172-.782l-1.406-3.437c-.312-.625 0-1.328.625-1.64.625-.235 1.406.077 1.64.702m47.422-9.376c.156.313.234.625.234.938 0 .86-.625 1.797-1.484 2.187l-8.203 3.36a3.324 3.324 0 0 1-.86.156c-.937 0-1.875-.547-2.187-1.406L32.328 7.64c-.156-.235-.234-.547-.234-.86 0-.937.625-1.875 1.484-2.187l8.125-3.36c1.25-.546 2.656.157 3.125 1.25zM40.53 21.08l7.813-3.438-5.938-14.297-7.968 3.437z"/></svg>