<svg width="21" height="20"><path d="M20.188 18.398c.39.391.39.977 0 1.329-.157.195-.391.273-.625.273-.274 0-.508-.078-.665-.273l-5.234-5.235a7.986 7.986 0 0 1-5.039 1.758A8.119 8.119 0 0 1 .5 8.125C.5 3.672 4.133 0 8.625 0c4.453 0 8.125 3.672 8.125 8.125a7.86 7.86 0 0 1-1.797 5.04zM8.625 14.375a6.243 6.243 0 0 0 6.25-6.25c0-3.437-2.812-6.25-6.25-6.25a6.243 6.243 0 0 0-6.25 6.25 6.219 6.219 0 0 0 6.25 6.25m3.125-7.187a.95.95 0 0 1 .938.937c0 .547-.43.938-.977.938H5.46c-.508 0-.899-.391-.899-.938 0-.508.391-.937.899-.937z"/></svg>